<?xml version="1.0" encoding="UTF-8" standalone="no"?>
<!DOCTYPE svg PUBLIC "-//W3C//DTD SVG 1.1//EN" "http://www.w3.org/Graphics/SVG/1.1/DTD/svg11.dtd">
<svg xmlns:xl="http://www.w3.org/1999/xlink" version="1.1" xmlns:dc="http://purl.org/dc/elements/1.1/" xmlns="http://www.w3.org/2000/svg" viewBox="111 160.28427 521.64017 234.33677" width="521.64017" height="234.33677">
  <defs/>
  <metadata> Produced by OmniGraffle 7.18.2\n2021-01-25 13:37:49 +0000</metadata>
  <g id="In2it_Logo_White_SVG" stroke-opacity="1" stroke-dasharray="none" fill="none" fill-opacity="1" stroke="none">
    <title>In2it Logo White SVG</title>
    <g id="In2it_Logo_White_SVG_Layer_1">
      <title>Layer 1</title>
      <g id="Group_2">
        <g id="Graphic_10">
          <path d="M 398.31113 170.14214 L 491.4795 263.31052 C 499.29 271.121 499.29 283.7843 491.4795 291.5948 C 491.4795 291.5948 491.4795 291.5948 491.4795 291.5948 L 398.31113 384.7632 C 390.50065 392.57367 377.83735 392.57367 370.02686 384.7632 L 276.85847 291.5948 C 269.048 283.7843 269.048 271.121 276.85847 263.31052 L 370.02686 170.14214 C 377.83735 162.33165 390.50065 162.33165 398.31113 170.14214 Z" stroke="#e59500" stroke-linecap="round" stroke-linejoin="round" stroke-width="8"/>
        </g>
        <g id="Graphic_9">
          <title>2</title>
          <path d="M 422.23943 327.70323 C 422.23943 329.4648 422.1635 330.9682 422.01164 332.21348 C 421.8598 333.45874 421.632 334.4762 421.32827 335.26587 C 421.02455 336.05555 420.6297 336.61743 420.14376 336.9515 C 419.6578 337.2856 419.1111 337.45266 418.50367 337.45266 L 350.71324 337.45266 C 349.37686 337.45266 348.22273 337.33117 347.25082 337.0882 C 346.2789 336.8452 345.48925 336.37445 344.8818 335.6759 C 344.27436 334.97733 343.83397 333.95988 343.5606 332.6235 C 343.28727 331.28712 343.1506 329.55593 343.1506 327.42988 C 343.1506 325.4253 343.2417 323.7093 343.42394 322.2818 C 343.60618 320.85432 343.94027 319.5787 344.42622 318.45494 C 344.91218 317.33116 345.5348 316.2378 346.2941 315.17475 C 347.0534 314.11173 348.0405 312.9424 349.25538 311.6668 L 369.6654 289.7989 C 373.73528 285.5468 377.01543 281.6744 379.50595 278.1816 C 381.99647 274.6888 383.94026 271.49975 385.3374 268.6144 C 386.7345 265.72903 387.6912 263.0715 388.20754 260.64172 C 388.72387 258.21195 388.98203 255.9037 388.98203 253.7169 C 388.98203 251.71233 388.66313 249.8141 388.0253 248.02213 C 387.3875 246.23017 386.44597 244.66603 385.2007 243.32965 C 383.95545 241.99327 382.3913 240.94545 380.50823 240.18614 C 378.62515 239.42684 376.408 239.0472 373.85674 239.0472 C 370.27282 239.0472 367.09898 239.50277 364.3351 240.41393 C 361.57123 241.3251 359.1415 242.34255 357.0458 243.46633 C 354.95013 244.5901 353.20375 245.62274 351.80663 246.56428 C 350.4095 247.5058 349.31613 247.97658 348.52645 247.97658 C 347.97975 247.97658 347.509 247.79435 347.11415 247.42988 C 346.7193 247.0654 346.4004 246.45798 346.15743 245.60756 C 345.91445 244.75713 345.71703 243.6182 345.56517 242.1907 C 345.4133 240.7632 345.3374 239.01683 345.3374 236.95152 C 345.3374 235.5544 345.38294 234.38509 345.47406 233.44355 C 345.56517 232.502 345.70185 231.68197 345.8841 230.9834 C 346.0663 230.28485 346.3093 229.67741 346.613 229.1611 C 346.91673 228.64476 347.44824 228.02214 348.20754 227.2932 C 348.96685 226.56427 350.36395 225.63793 352.3989 224.51416 C 354.43382 223.3904 356.9395 222.297 359.91597 221.23398 C 362.89245 220.17095 366.1726 219.27499 369.7565 218.54605 C 373.34044 217.81712 377.07616 217.45266 380.9638 217.45266 C 387.099 217.45266 392.4596 218.22714 397.0458 219.77612 C 401.632 221.3251 405.44367 223.4815 408.4809 226.24537 C 411.5181 229.00924 413.7808 232.2894 415.26905 236.08592 C 416.7573 239.88244 417.5014 243.96744 417.5014 248.34104 C 417.5014 252.16794 417.13693 255.93404 416.408 259.63945 C 415.67906 263.34486 414.1605 267.33874 411.8522 271.62122 C 409.5439 275.9037 406.2941 280.6417 402.10276 285.83535 C 397.9114 291.029 392.35336 297.0578 385.4285 303.9219 L 371.66996 318.0449 L 418.1392 318.0449 C 418.74665 318.0449 419.30853 318.22714 419.82485 318.5916 C 420.3412 318.95608 420.78157 319.51795 421.14604 320.27726 C 421.5105 321.03657 421.78385 322.03883 421.9661 323.2841 C 422.1483 324.52935 422.23943 326.0024 422.23943 327.70323 Z" fill="#e59500"/>
        </g>
        <g id="Group_6">
          <title>in</title>
          <g id="Graphic_8">
            <path d="M 140.11133 344.0003 C 140.11133 344.71647 139.89649 345.3431 139.4668 345.8802 C 139.0371 346.4173 138.30307 346.8649 137.26465 347.22297 C 136.22623 347.58105 134.84766 347.8496 133.1289 348.02864 C 131.41015 348.20768 129.22592 348.2972 126.57617 348.2972 C 123.92642 348.2972 121.7422 348.20768 120.02344 348.02864 C 118.30468 347.8496 116.92611 347.58105 115.8877 347.22297 C 114.84928 346.8649 114.11524 346.4173 113.68555 345.8802 C 113.25586 345.3431 113.04102 344.71647 113.04102 344.0003 L 113.04102 248.39485 C 113.04102 247.6787 113.25586 247.05208 113.68555 246.51497 C 114.11524 245.97785 114.84928 245.51236 115.8877 245.11848 C 116.92611 244.7246 118.30468 244.42024 120.02344 244.2054 C 121.7422 243.99055 123.92642 243.88313 126.57617 243.88313 C 129.22592 243.88313 131.41015 243.99055 133.1289 244.2054 C 134.84766 244.42024 136.22623 244.7246 137.26465 245.11848 C 138.30307 245.51236 139.0371 245.97785 139.4668 246.51497 C 139.89649 247.05208 140.11133 247.6787 140.11133 248.39485 Z M 142.15234 215.7386 C 142.15234 221.18134 141.04233 224.94106 138.82227 227.0179 C 136.6022 229.09473 132.4844 230.13313 126.46875 230.13313 C 120.38148 230.13313 116.28159 229.13054 114.16895 227.12532 C 112.0563 225.1201 111 221.5036 111 216.2757 C 111 210.83297 112.09211 207.05534 114.27637 204.9427 C 116.46062 202.83006 120.59632 201.77376 126.6836 201.77376 C 132.69925 201.77376 136.78124 202.79425 138.92969 204.83528 C 141.07814 206.8763 142.15234 210.5107 142.15234 215.7386 Z" fill="#e59500"/>
          </g>
          <g id="Graphic_7">
            <path d="M 258.59766 344.0003 C 258.59766 344.71647 258.3828 345.3431 257.95312 345.8802 C 257.52344 346.4173 256.8073 346.8649 255.8047 347.22297 C 254.80208 347.58105 253.4235 347.8496 251.66895 348.02864 C 249.91438 348.20768 247.74806 348.2972 245.16992 348.2972 C 242.52017 348.2972 240.31804 348.20768 238.56348 348.02864 C 236.8089 347.8496 235.43034 347.58105 234.42773 347.22297 C 233.42513 346.8649 232.709 346.4173 232.2793 345.8802 C 231.8496 345.3431 231.63477 344.71647 231.63477 344.0003 L 231.63477 289.3226 C 231.63477 284.6676 231.2946 281.0153 230.61426 278.36555 C 229.93392 275.7158 228.94923 273.44206 227.66016 271.54426 C 226.3711 269.64647 224.70606 268.17838 222.66504 267.13997 C 220.62401 266.10155 218.24285 265.58235 215.52148 265.58235 C 212.08397 265.58235 208.6107 266.8356 205.10156 269.3421 C 201.59243 271.84864 197.94012 275.50095 194.14453 280.29915 L 194.14453 344.0003 C 194.14453 344.71647 193.9297 345.3431 193.5 345.8802 C 193.0703 346.4173 192.33627 346.8649 191.29785 347.22297 C 190.25943 347.58105 188.88087 347.8496 187.1621 348.02864 C 185.44335 348.20768 183.25913 348.2972 180.60938 348.2972 C 177.95962 348.2972 175.7754 348.20768 174.05664 348.02864 C 172.33788 347.8496 170.95932 347.58105 169.9209 347.22297 C 168.88248 346.8649 168.14844 346.4173 167.71875 345.8802 C 167.28906 345.3431 167.07422 344.71647 167.07422 344.0003 L 167.07422 248.18 C 167.07422 247.46386 167.25325 246.83724 167.61133 246.30012 C 167.9694 245.763 168.61393 245.31542 169.54492 244.95735 C 170.47592 244.59927 171.67545 244.33072 173.14355 244.1517 C 174.61166 243.97265 176.45572 243.88313 178.67578 243.88313 C 180.96746 243.88313 182.86523 243.97265 184.36914 244.1517 C 185.87305 244.33072 187.03678 244.59927 187.86035 244.95735 C 188.68392 245.31542 189.27474 245.763 189.63281 246.30012 C 189.99089 246.83724 190.16992 247.46386 190.16992 248.18 L 190.16992 259.24446 C 195.46943 253.51526 200.85837 249.21843 206.33691 246.35383 C 211.81546 243.48924 217.52666 242.05696 223.4707 242.05696 C 229.98766 242.05696 235.48403 243.13117 239.95996 245.27962 C 244.4359 247.42806 248.0524 250.34633 250.80957 254.0345 C 253.56675 257.72267 255.55403 262.0374 256.77148 266.97883 C 257.98894 271.92026 258.59766 277.8642 258.59766 284.81087 Z" fill="#e59500"/>
          </g>
        </g>
        <g id="Group_3">
          <title>it</title>
          <g id="Graphic_5">
            <path d="M 542.9429 344.0003 C 542.9429 344.71647 542.72806 345.3431 542.2984 345.8802 C 541.8687 346.4173 541.13464 346.8649 540.0962 347.22297 C 539.0578 347.58105 537.67924 347.8496 535.9605 348.02864 C 534.2417 348.20768 532.0575 348.2972 529.40774 348.2972 C 526.758 348.2972 524.57377 348.20768 522.855 348.02864 C 521.13625 347.8496 519.7577 347.58105 518.71927 347.22297 C 517.68085 346.8649 516.9468 346.4173 516.5171 345.8802 C 516.0874 345.3431 515.8726 344.71647 515.8726 344.0003 L 515.8726 248.39485 C 515.8726 247.6787 516.0874 247.05208 516.5171 246.51497 C 516.9468 245.97785 517.68085 245.51236 518.71927 245.11848 C 519.7577 244.7246 521.13625 244.42024 522.855 244.2054 C 524.57377 243.99055 526.758 243.88313 529.40774 243.88313 C 532.0575 243.88313 534.2417 243.99055 535.9605 244.2054 C 537.67924 244.42024 539.0578 244.7246 540.0962 245.11848 C 541.13464 245.51236 541.8687 245.97785 542.2984 246.51497 C 542.72806 247.05208 542.9429 247.6787 542.9429 248.39485 Z M 544.9839 215.7386 C 544.9839 221.18134 543.8739 224.94106 541.65384 227.0179 C 539.4338 229.09473 535.316 230.13313 529.3003 230.13313 C 523.21305 230.13313 519.11316 229.13054 517.0005 227.12532 C 514.8879 225.1201 513.8316 221.5036 513.8316 216.2757 C 513.8316 210.83297 514.9237 207.05534 517.10794 204.9427 C 519.2922 202.83006 523.4279 201.77376 529.51517 201.77376 C 535.5308 201.77376 539.6128 202.79425 541.76126 204.83528 C 543.9097 206.8763 544.9839 210.5107 544.9839 215.7386 Z" fill="#e59500"/>
          </g>
          <g id="Graphic_4">
            <path d="M 626.62454 334.5472 C 626.62454 337.69825 626.4276 340.1152 626.0337 341.79817 C 625.63984 343.48112 625.12064 344.66275 624.4761 345.3431 C 623.8316 346.02343 622.8827 346.63215 621.6294 347.16926 C 620.37616 347.70638 618.9081 348.17187 617.2251 348.56575 C 615.5422 348.95963 613.716 349.264 611.7466 349.47883 C 609.7772 349.69368 607.7899 349.8011 605.7847 349.8011 C 600.4136 349.8011 595.7587 349.12077 591.81985 347.7601 C 587.881 346.3994 584.6226 344.3047 582.04446 341.4759 C 579.4663 338.6471 577.56856 335.08432 576.3511 330.78743 C 575.13365 326.49053 574.5249 321.40595 574.5249 315.53352 L 574.5249 266.44172 L 563.0308 266.44172 C 561.6701 266.44172 560.6317 265.60026 559.91556 263.9173 C 559.1994 262.23436 558.84134 259.4235 558.84134 255.4847 C 558.84134 253.40786 558.93085 251.65332 559.1099 250.22102 C 559.2889 248.78872 559.5575 247.6608 559.91556 246.83723 C 560.2736 246.01366 560.7212 245.42285 561.2583 245.06477 C 561.79544 244.7067 562.42206 244.52766 563.1382 244.52766 L 574.5249 244.52766 L 574.5249 223.1507 C 574.5249 222.43456 574.7219 221.79003 575.11575 221.21712 C 575.5096 220.6442 576.2258 220.1608 577.2642 219.76692 C 578.3026 219.37304 579.6991 219.08658 581.45364 218.90754 C 583.2082 218.7285 585.3745 218.639 587.9527 218.639 C 590.6024 218.639 592.80454 218.7285 594.5591 218.90754 C 596.3137 219.08658 597.69224 219.37304 598.69485 219.76692 C 599.69746 220.1608 600.4136 220.6442 600.8433 221.21712 C 601.273 221.79003 601.4878 222.43456 601.4878 223.1507 L 601.4878 244.52766 L 622.3277 244.52766 C 623.0438 244.52766 623.6704 244.7067 624.20755 245.06477 C 624.74466 245.42285 625.19225 246.01366 625.5503 246.83723 C 625.9084 247.6608 626.17695 248.78872 626.356 250.22102 C 626.535 251.65332 626.62454 253.40786 626.62454 255.4847 C 626.62454 259.4235 626.2665 262.23436 625.5503 263.9173 C 624.8342 265.60026 623.7958 266.44172 622.4351 266.44172 L 601.4878 266.44172 L 601.4878 311.4515 C 601.4878 316.67938 602.3114 320.60024 603.9585 323.2142 C 605.6057 325.82813 608.54184 327.1351 612.7671 327.1351 C 614.1994 327.1351 615.4885 327.00976 616.6343 326.7591 C 617.78015 326.50846 618.80064 326.222 619.6958 325.89973 C 620.591 325.57747 621.34296 325.291 621.9517 325.04036 C 622.5604 324.7897 623.1154 324.6644 623.6167 324.6644 C 624.0464 324.6644 624.4582 324.7897 624.8521 325.04036 C 625.24596 325.291 625.5503 325.7923 625.7652 326.54426 C 625.98 327.29622 626.17695 328.3167 626.356 329.6058 C 626.535 330.89486 626.62454 332.54197 626.62454 334.5472 Z" fill="#e59500"/>
          </g>
        </g>
      </g>
    </g>
  </g>
</svg>
