<svg width="2990" height="512" viewBox="0 0 2990 512" fill="none" xmlns="http://www.w3.org/2000/svg">
<path fill-rule="evenodd" clip-rule="evenodd" d="M476.685 414.314V379.313C476.685 376.328 475.265 373.535 472.882 371.744L471.808 370.33L470.51 369.197C466.496 366.917 465.63 366.429 465.228 366.231L402.272 330.408V184.286L462.524 150.047C462.524 150.047 466.746 147.637 466.963 147.505L466.964 147.505C467.323 147.28 467.324 147.28 467.924 146.891L530.638 111.246L590.915 145.579C594.318 147.519 595.544 148.208 596.088 148.473L659.014 184.282V231.975C659.014 235.376 660.857 238.519 663.849 240.221L694.756 257.802C701.21 261.474 709.283 256.89 709.282 249.555L709.267 170.18C709.303 165.895 708.168 161.595 705.99 157.816C703.785 153.998 700.599 150.838 696.708 148.622L692.737 146.387C644.099 118.712 620.209 105.118 619.922 104.954L615.953 102.75L544.322 62.0134C541.098 59.7548 536.498 58.2499 531.833 58.027C527.028 57.8067 522.288 58.9366 518.098 61.3121L514.082 63.6535L445.243 102.765C443.465 103.762 442.878 104.091 442.292 104.421C442.003 104.584 441.714 104.746 441.283 104.989L437.359 107.25L365.489 148.126C361.802 149.88 358.256 153.087 355.806 156.989C353.33 160.879 352 165.405 352 170.04V257.347L352.019 344.515C351.976 348.788 353.112 353.088 355.294 356.877C357.501 360.696 360.694 363.859 364.587 366.071L368.535 368.299C418.241 396.583 441.117 409.599 441.4 409.757L445.357 411.954L461.902 422.408C468.455 426.301 476.685 421.729 476.685 414.314ZM673.516 281.095C667.062 277.437 659.003 282.021 659.003 289.349V298.247L499.315 207.438L493.949 204.362C489.087 201.6 483.086 201.889 478.559 205.059L474.311 207.419L450.745 220.767C444.321 224.397 443.179 225.042 442.037 225.688L441.242 226.137C434.332 230.069 432.17 238.677 436.219 245.55L441.623 254.721L447.075 263.991C451.079 270.786 459.843 272.906 466.804 268.899C476.07 263.635 476.496 263.394 476.899 263.118C476.925 263.1 476.952 263.082 476.98 263.062L486.764 257.526L506.117 268.534L506.099 439.472C506.099 447.205 512.468 453.476 520.326 453.476C523.931 453.476 527.376 452.138 530.008 449.739C547.546 435.798 547.565 435.783 551.176 432.911L551.187 432.901C554.887 429.967 556.834 425.43 556.43 420.791L556.459 297.177L671.302 362.691C678.46 366.749 686.482 364.014 691.946 357.141L706.516 342.524C708.284 340.741 709.271 338.354 709.271 335.869V306.867C709.271 303.46 707.422 300.313 704.422 298.613L673.516 281.095Z" fill="#0EBAC5" style="fill:#0EBAC5;fill:color(display-p3 0.0549 0.7294 0.7725);fill-opacity:1;"/>
<path fill-rule="evenodd" clip-rule="evenodd" d="M812.356 336.802C810.545 336.802 808.959 336.135 807.599 334.806C806.243 333.473 805.559 331.919 805.559 330.144V156.995C805.559 155.045 806.243 153.445 807.599 152.204C808.959 150.958 810.545 150.337 812.356 150.337H850.406C852.399 150.337 854.028 150.958 855.298 152.204C856.565 153.445 857.199 155.045 857.199 156.995V294.983H938.736C940.725 294.983 942.404 295.646 943.761 296.979C945.121 298.312 945.801 299.954 945.801 301.908V330.144C945.801 332.098 945.121 333.697 943.761 334.939C942.404 336.181 940.725 336.802 938.736 336.802H812.356ZM958.021 336.802C956.571 336.802 955.254 336.227 954.08 335.069C952.899 333.915 952.312 332.627 952.312 331.206C952.312 330.144 952.405 329.344 952.584 328.811L1015.91 158.062C1017.72 152.912 1021.34 150.337 1026.78 150.337H1069.18C1074.61 150.337 1078.24 152.912 1080.05 158.062L1143.37 328.811C1143.56 329.344 1143.65 330.144 1143.65 331.206C1143.65 332.627 1143.06 333.915 1141.88 335.069C1140.7 336.227 1139.39 336.802 1137.94 336.802H1102.6C1098.26 336.802 1095.18 334.848 1093.37 330.94L1083.58 305.104H1012.38L1002.59 330.94C1000.78 334.848 997.699 336.802 993.35 336.802H958.021ZM1023.79 265.144H1072.17L1047.98 197.215L1023.79 265.144ZM1171.37 336.802C1169.38 336.802 1167.7 336.181 1166.34 334.939C1164.99 333.698 1164.31 332.098 1164.31 330.144V157.262C1164.31 155.312 1164.99 153.666 1166.34 152.337C1167.7 151.004 1169.38 150.337 1171.37 150.337H1202.09C1206.61 150.337 1209.88 152.291 1211.87 156.196L1258.62 238.241L1305.63 156.196C1307.62 152.291 1310.89 150.337 1315.42 150.337H1346.13C1348.12 150.337 1349.8 151.004 1351.16 152.337C1352.51 153.666 1353.19 155.312 1353.19 157.262V330.144C1353.19 332.098 1352.51 333.698 1351.16 334.939C1349.8 336.181 1348.12 336.802 1346.13 336.802H1311.61C1309.8 336.802 1308.22 336.135 1306.86 334.806C1305.5 333.473 1304.82 331.919 1304.82 330.144V233.179L1275.47 285.925C1273.11 290.009 1269.94 292.05 1265.95 292.05H1251.28C1247.65 292.05 1244.48 290.009 1241.76 285.925L1212.68 233.179V330.144C1212.68 332.098 1212 333.698 1210.65 334.939C1209.29 336.181 1207.61 336.802 1205.62 336.802H1171.37ZM1396.95 336.802C1395.14 336.802 1393.55 336.135 1392.19 334.806C1390.83 333.473 1390.15 331.919 1390.15 330.144V157.262C1390.15 155.312 1390.79 153.666 1392.05 152.337C1393.32 151.004 1394.96 150.337 1396.95 150.337H1480.93C1503.94 150.337 1521.06 154.954 1532.3 164.191C1543.53 173.424 1549.15 186.565 1549.15 203.614C1549.15 212.138 1546.83 219.508 1542.22 225.721C1537.6 231.937 1532.48 236.466 1526.86 239.307C1534.29 242.503 1540.54 247.786 1545.61 255.157C1550.69 262.527 1553.22 270.83 1553.22 280.063C1553.22 297.996 1547.2 311.941 1535.15 321.886C1523.1 331.827 1505.84 336.802 1483.37 336.802H1396.95ZM1475.22 224.118C1481.93 224.118 1487.09 222.343 1490.72 218.789C1494.34 215.235 1496.15 210.622 1496.15 204.939C1496.15 199.432 1494.39 194.949 1490.85 191.486C1487.32 188.02 1482.11 186.291 1475.22 186.291H1441.25V224.118H1475.22ZM1477.67 300.836C1484.74 300.836 1490.22 298.836 1494.11 294.841C1498.01 290.849 1499.96 285.92 1499.96 280.058C1499.96 274.021 1497.96 269.005 1493.98 265.005C1489.99 261.013 1484.56 259.014 1477.67 259.014H1441.25V300.836H1477.67ZM1589.11 336.802C1587.3 336.802 1585.71 336.135 1584.35 334.806C1582.99 333.473 1582.31 331.919 1582.31 330.144V157.262C1582.31 155.312 1582.95 153.666 1584.22 152.337C1585.48 151.004 1587.12 150.337 1589.11 150.337H1660.59C1687.4 150.337 1708.24 156.596 1723.1 169.119C1737.95 181.636 1745.75 199.618 1746.47 223.058C1746.65 228.208 1746.74 235.045 1746.74 243.57C1746.74 252.094 1746.65 258.84 1746.47 263.814C1744.66 312.47 1716.48 336.802 1661.95 336.802H1589.11ZM1660.58 296.84C1671.99 296.84 1680.42 294.177 1685.86 288.848C1691.29 283.523 1694.19 274.995 1694.55 263.275C1694.92 258.125 1695.1 251.467 1695.1 243.297C1695.1 235.127 1694.92 228.556 1694.55 223.585C1694.19 212.219 1691.06 203.828 1685.18 198.412C1679.29 192.996 1670.64 190.287 1659.22 190.287H1633.4V296.84H1660.58ZM1767.12 336.802C1765.67 336.802 1764.35 336.227 1763.18 335.069C1761.99 333.915 1761.41 332.627 1761.41 331.206C1761.41 330.144 1761.5 329.344 1761.68 328.811L1825 158.062C1826.82 152.912 1830.44 150.337 1835.88 150.337H1878.27C1883.71 150.337 1887.33 152.912 1889.14 158.062L1952.47 328.811C1952.65 329.344 1952.74 330.144 1952.74 331.206C1952.74 332.627 1952.15 333.915 1950.97 335.069C1949.8 336.227 1948.49 336.802 1947.03 336.802H1911.7C1907.35 336.802 1904.27 334.848 1902.46 330.94L1892.68 305.104H1821.47L1811.68 330.94C1809.88 334.848 1806.8 336.802 1802.45 336.802H1767.12ZM1832.89 265.144H1881.26L1857.08 197.215L1832.89 265.144Z" fill="#0EBAC5" style="fill:#0EBAC5;fill:color(display-p3 0.0549 0.7294 0.7725);fill-opacity:1;"/>
<path fill-rule="evenodd" clip-rule="evenodd" d="M2009.19 339.459C2007.19 339.459 2005.52 338.838 2004.16 337.597C2002.8 336.355 2002.12 334.755 2002.12 332.801V196.413H1954.29C1952.3 196.413 1950.62 195.792 1949.26 194.551C1947.9 193.305 1947.22 191.709 1947.22 189.755V159.92C1947.22 157.969 1947.9 156.324 1949.26 154.995C1950.62 153.661 1952.3 152.995 1954.29 152.995H2101.87C2103.86 152.995 2105.54 153.661 2106.9 154.995C2108.25 156.324 2108.93 157.969 2108.93 159.92V189.755C2108.93 191.709 2108.25 193.305 2106.9 194.551C2105.54 195.792 2103.86 196.413 2101.87 196.413H2054.03V332.801C2054.03 334.755 2053.35 336.355 2052 337.597C2050.64 338.838 2048.96 339.459 2046.97 339.459H2009.19ZM2139.63 339.459C2137.83 339.459 2136.24 338.793 2134.88 337.463C2133.52 336.13 2132.84 334.576 2132.84 332.801V159.92C2132.84 157.969 2133.47 156.324 2134.74 154.995C2136.01 153.661 2137.64 152.995 2139.63 152.995H2267.91C2269.91 152.995 2271.58 153.661 2272.94 154.995C2274.3 156.324 2274.98 157.969 2274.98 159.92V186.293C2274.98 188.247 2274.3 189.843 2272.94 191.085C2271.58 192.33 2269.91 192.951 2267.91 192.951H2182.03V226.782H2261.94C2263.93 226.782 2265.6 227.449 2266.96 228.778C2268.32 230.111 2269 231.753 2269 233.707V257.947C2269 259.901 2268.32 261.543 2266.96 262.876C2265.6 264.205 2263.93 264.876 2261.94 264.876H2182.03V299.503H2270.09C2272.08 299.503 2273.76 300.17 2275.12 301.499C2276.47 302.832 2277.15 304.474 2277.15 306.428V332.801C2277.15 334.755 2276.47 336.355 2275.12 337.597C2273.76 338.838 2272.08 339.459 2270.09 339.459H2139.63ZM2379.34 342.127C2361.77 342.127 2346.82 339.643 2334.5 334.669C2322.18 329.698 2312.85 323.127 2306.51 314.953C2300.16 306.791 2296.81 297.908 2296.45 288.317C2296.45 286.721 2297.04 285.388 2298.22 284.322C2299.39 283.259 2300.8 282.726 2302.43 282.726H2338.57C2340.75 282.726 2342.52 283.08 2343.88 283.792C2345.24 284.501 2346.73 285.742 2348.36 287.517C2350.72 291.78 2354.38 295.288 2359.37 298.041C2364.35 300.795 2371.01 302.17 2379.34 302.17C2389.13 302.17 2396.65 300.704 2401.9 297.779C2407.16 294.846 2409.78 290.808 2409.78 285.655C2409.78 281.93 2408.42 278.863 2405.71 276.467C2402.99 274.068 2398.64 271.935 2392.66 270.072C2386.68 268.21 2378.07 266.122 2366.84 263.814C2344.92 259.552 2328.52 253.069 2317.65 244.365C2306.78 235.666 2301.34 223.233 2301.34 207.076C2301.34 196.064 2304.47 186.252 2310.72 177.64C2316.97 169.024 2325.85 162.324 2337.35 157.528C2348.86 152.733 2362.22 150.337 2377.44 150.337C2393.38 150.337 2407.2 153.045 2418.89 158.458C2430.57 163.878 2439.54 170.624 2445.8 178.703C2452.05 186.785 2455.35 194.731 2455.71 202.547C2455.71 204.143 2455.17 205.522 2454.08 206.676C2452.99 207.83 2451.64 208.405 2450.01 208.405H2411.96C2407.97 208.405 2404.89 206.809 2402.72 203.609C2401.63 199.88 2398.82 196.73 2394.29 194.156C2389.76 191.581 2384.14 190.293 2377.44 190.293C2369.83 190.293 2363.94 191.626 2359.77 194.289C2355.61 196.951 2353.52 200.859 2353.52 206.009C2353.52 211.159 2356.25 215.2 2361.68 218.129C2367.12 221.062 2377.26 224.033 2392.12 227.054C2409.15 230.07 2422.69 233.845 2432.75 238.374C2442.8 242.899 2450.23 248.765 2455.03 255.952C2459.84 263.147 2462.23 272.251 2462.23 283.259C2462.23 295.333 2458.7 305.812 2451.64 314.69C2444.57 323.569 2434.79 330.361 2422.28 335.068C2409.78 339.776 2395.47 342.127 2379.34 342.127ZM2537.25 339.459C2535.26 339.459 2533.58 338.838 2532.23 337.597C2530.87 336.355 2530.19 334.755 2530.19 332.801V196.413H2482.36C2480.36 196.413 2478.69 195.792 2477.33 194.551C2475.97 193.305 2475.29 191.709 2475.29 189.755V159.92C2475.29 157.969 2475.97 156.324 2477.33 154.995C2478.69 153.661 2480.36 152.995 2482.36 152.995H2629.93C2631.92 152.995 2633.6 153.661 2634.96 154.995C2636.32 156.324 2637 157.969 2637 159.92V189.755C2637 191.709 2636.32 193.305 2634.96 194.551C2633.6 195.792 2631.92 196.413 2629.93 196.413H2582.1V332.801C2582.1 334.755 2581.42 336.355 2580.06 337.597C2578.7 338.838 2577.03 339.459 2575.04 339.459H2537.25Z" fill="black" style="fill:black;fill:black;fill-opacity:1;"/>
</svg>
