<svg width="420" height="123" viewBox="0 0 420 123" fill="none" xmlns="http://www.w3.org/2000/svg">
<path d="M22.6253 89.9249L12.2478 96.0802C10.84 97.0059 11.4833 98.5972 12.2478 98.9176L52.5505 121.5C54.9311 122.833 57.8642 122.833 60.2448 121.5L101.081 98.6186C102.319 97.8858 102.116 96.396 101.081 95.8937L90.1088 89.9649C89.1825 89.3541 87.1173 89.5574 86.3857 90.0548L60.2448 104.702C57.8642 106.036 54.9311 106.036 52.5505 104.702L26.178 89.9249C25.1949 89.3201 23.6375 89.3544 22.6253 89.9249Z" fill="#1A2E44"/>
<path d="M52.5476 1.21398C54.9283 -0.119909 57.8611 -0.119909 60.2417 1.21398C60.2417 1.21398 90.7963 18.334 92.6969 19.3989C93.9926 20.0544 94.11 21.8142 92.6969 22.6078C90.5575 23.8023 87.6877 25.4028 85.3065 26.7307C82.5247 28.282 79.1383 28.2775 76.3596 26.7205L60.2417 17.6896C57.8611 16.3557 54.9283 16.3557 52.5476 17.6896L36.4108 26.7312C33.63 28.2892 30.2407 28.2921 27.457 26.7395C24.9816 25.3588 21.9786 23.6848 19.8147 22.4816C18.6144 21.9661 18.3645 20.4359 19.8147 19.5544L52.5476 1.21398Z" fill="#1A2E44"/>
<path d="M107.186 28.5855C109.567 29.9194 111.034 32.3844 111.034 35.0524V87.6622C111.034 90.2664 109.403 90.7518 107.664 89.8426L95.6449 83.3556V47.9859L60.2388 67.8241C57.8582 69.1579 54.9254 69.1579 52.5448 67.8241L17.1386 47.9859V83.3513L6.21749 89.835C4.91591 90.6626 1.75 90.9234 1.75 87.6622V35.0524C1.75 32.3844 3.21653 29.9194 5.59715 28.5855C9.42746 26.5797 13.3852 28.5855 13.3852 28.5855L56.3917 52.7349L99.3309 28.5855C99.3309 28.5855 103.144 26.2857 107.186 28.5855Z" fill="#22D172"/>
<path fill-rule="evenodd" clip-rule="evenodd" d="M262.428 27.5625C259.535 27.5625 257.188 29.9085 257.188 32.8024C257.188 35.6962 259.535 38.0421 262.428 38.0421C265.322 38.0421 267.668 35.6962 267.668 32.8024C267.668 29.9085 265.322 27.5625 262.428 27.5625ZM275.822 27.5626C275.536 27.5626 275.305 27.794 275.305 28.0794V79.5282C275.305 79.8137 275.536 80.0449 275.822 80.0449H283.779C284.064 80.0449 284.296 79.8137 284.296 79.5282V28.0794C284.296 27.794 284.064 27.5626 283.779 27.5626H275.822ZM293.45 27.5626C293.164 27.5626 292.933 27.794 292.933 28.0794V79.5282C292.933 79.8137 293.164 80.0452 293.45 80.0452H301.407C301.692 80.0452 301.924 79.8137 301.924 79.5282V52.0784H309.971C310.256 52.0784 310.488 51.8472 310.488 51.5618V43.9472C310.488 43.6618 310.256 43.4302 309.971 43.4302H301.924V28.0794C301.924 27.794 301.692 27.5626 301.407 27.5626H293.45ZM169.047 41.8607C160.276 41.8607 153.166 48.9706 153.166 57.7413V79.5285C153.166 79.814 153.398 80.0452 153.683 80.0452H161.64C161.925 80.0452 162.157 79.814 162.157 79.5285V57.7413C162.157 53.9361 165.242 50.8516 169.047 50.8516C172.852 50.8516 175.937 53.9361 175.937 57.7413V79.5285C175.937 79.814 176.168 80.0452 176.454 80.0452H184.411C184.696 80.0452 184.928 79.814 184.928 79.5285L184.928 57.7413C184.928 53.9361 188.013 50.8516 191.818 50.8516C195.623 50.8516 198.708 53.9361 198.708 57.7413V79.5285C198.708 79.814 198.939 80.0452 199.225 80.0452H207.182C207.468 80.0452 207.699 79.814 207.699 79.5285V57.7413C207.699 48.9706 200.589 41.8607 191.818 41.8607C187.353 41.8607 183.317 43.7043 180.432 46.6704C177.548 43.7043 173.512 41.8607 169.047 41.8607ZM231.282 41.8607C220.638 41.8607 212.01 50.4893 212.01 61.1336V61.936C212.01 72.5803 220.638 81.2089 231.282 81.2089C235.105 81.2089 238.62 79.8694 241.565 77.7572V79.5285C241.565 79.814 241.796 80.0452 242.081 80.0452H250.039C250.324 80.0452 250.556 79.814 250.556 79.5285V61.1336C250.556 50.4893 241.927 41.8607 231.282 41.8607ZM351.973 41.8607C341.331 41.8607 332.701 50.4893 332.701 61.1336V61.936C332.701 72.5803 341.331 81.2089 351.973 81.2089C355.722 81.2089 359.421 79.5383 362.257 77.3983V79.5285C362.257 79.814 362.487 80.0452 362.771 80.0452H370.731C371.016 80.0452 371.245 79.814 371.245 79.5285V61.1336C371.245 50.4893 362.618 41.8607 351.973 41.8607ZM397.188 41.8607C386.543 41.8607 377.916 50.4893 377.916 61.1336V94.7029C377.916 94.9883 378.145 95.2199 378.433 95.2199H386.389C386.674 95.2199 386.907 94.9883 386.907 94.7029V78.2401C389.881 80.1205 393.409 81.2089 397.188 81.2089C407.833 81.2089 416.46 72.5803 416.46 61.936V61.1336C416.46 50.4893 407.833 41.8607 397.188 41.8607ZM329.969 43.1329C320.512 43.1329 312.844 50.8004 312.844 60.2587V79.5285C312.844 79.814 313.076 80.0452 313.361 80.0452H321.317C321.602 80.0452 321.835 79.814 321.835 79.5285V60.2587C321.835 55.766 325.476 52.1238 329.969 52.1238C330.107 52.1238 330.239 52.0692 330.337 51.9722C330.431 51.8754 330.487 51.744 330.487 51.6068V43.6495C330.487 43.3641 330.254 43.1329 329.969 43.1329ZM258.538 43.4302C258.253 43.4302 258.021 43.6618 258.021 43.9472V79.5285C258.021 79.814 258.253 80.0455 258.538 80.0455H266.495C266.781 80.0455 267.012 79.814 267.012 79.5285V43.9472C267.012 43.6618 266.781 43.4302 266.495 43.4302H258.538ZM221 61.1336C221 55.4548 225.604 50.8516 231.282 50.8516C236.961 50.8516 241.565 55.4548 241.565 61.1336V61.936C241.565 67.6148 236.961 72.218 231.282 72.218C225.604 72.218 221 67.6148 221 61.936V61.1336ZM341.692 61.1336C341.692 55.4548 346.295 50.8516 351.973 50.8516C357.651 50.8516 362.257 55.4548 362.257 61.1336V61.936C362.257 67.6148 357.651 72.218 351.973 72.218C346.295 72.218 341.692 67.6148 341.692 61.936V61.1336ZM386.907 61.1336C386.907 55.4548 391.51 50.8516 397.188 50.8516C402.866 50.8516 407.469 55.4548 407.469 61.1336V61.936C407.469 67.6148 402.866 72.218 397.188 72.218C391.51 72.218 386.907 67.6148 386.907 61.936V61.1336Z" fill="#1A2E44"/>
</svg>
