<?xml version="1.0" encoding="utf-8"?>
<!-- Generator: Adobe Illustrator 23.0.5, SVG Export Plug-In . SVG Version: 6.00 Build 0)  -->
<svg version="1.1" id="Layer_1" xmlns="http://www.w3.org/2000/svg" xmlns:xlink="http://www.w3.org/1999/xlink" x="0px" y="0px"
	 viewBox="0 0 56.69 22.68" style="enable-background:new 0 0 56.69 22.68;" xml:space="preserve">
<style type="text/css">
	.st0{fill:#356388;}
	.st1{fill:#3C9CD7;}
	.st2{fill:#39B54A;}
	.st3{fill:#FFFFFF;}
</style>
<rect x="-0.05" class="st0" width="56.74" height="22.68"/>
<g>
	<rect x="32.14" y="6.51" class="st1" width="1.97" height="1.77"/>
	<rect x="40.98" y="6.51" class="st2" width="1.93" height="1.88"/>
	<rect x="35.1" y="14.14" class="st2" width="1.93" height="1.88"/>
	<rect x="32.14" y="8.85" class="st2" width="1.97" height="1.88"/>
	<path class="st1" d="M32.14,11.29v2.22c0,0.52-0.28,0.84-0.75,0.84c-0.44,0-0.76-0.28-0.76-0.85V6.51h-0.28
		c-1.18,0-1.81,0.76-1.81,2.24v4.8c0,1.8,1.03,2.61,2.73,2.61c1.6,0,2.85-0.92,2.84-2.65v-2.22H32.14z"/>
	<path class="st3" d="M25.3,6.51h-1.25c-1.18,0-1.81,0.76-1.81,2.24v7.27h2.08v-3.37h0.92c1.72,0,2.45-1.2,2.45-3.19
		C27.69,7.51,26.86,6.51,25.3,6.51z M24.92,10.95h-0.6V8.22h0.61c0.49,0,0.73,0.37,0.73,1.29C25.66,10.5,25.4,10.95,24.92,10.95z"/>
	<path class="st3" d="M12.48,6.51h-1.25c-1.18,0-1.81,0.76-1.81,2.24v7.27h2.08v-3.37h0.92c1.72,0,2.45-1.2,2.45-3.19
		C14.87,7.51,14.04,6.51,12.48,6.51z M12.09,10.95h-0.6V8.22h0.61c0.49,0,0.73,0.37,0.73,1.29C12.84,10.5,12.57,10.95,12.09,10.95z"
		/>
	<path class="st3" d="M20.94,6.51c-1.18,0-1.81,0.76-1.81,2.24v1.36v0.19h-1.48v-0.19v-3.6h-0.27c-1.18,0-1.81,0.76-1.81,2.24v7.27
		h2.08v-3.65v-0.19v0h1.48v0v0.19v3.65h2.07v-9.5H20.94z"/>
	<path class="st1" d="M47.23,10.41V8.91h-0.97V7.3h-0.61c-0.85,0-1.31,0.55-1.31,1.61h-0.63v1.49h0.63v4.2
		c0,1.05,0.75,1.52,1.69,1.52c0.37,0,0.84-0.07,1.19-0.19V14.4c-0.15,0.03-0.36,0.04-0.56,0.04c-0.31,0-0.4-0.15-0.4-0.41v-3.63
		H47.23z"/>
	<path class="st1" d="M38.51,8.69c-0.63,0-1.13,0.27-1.48,0.77V8.85h-0.63c-0.85,0-1.31,0.55-1.31,1.61v3.12h1.93v-2.53
		c0-0.43,0.21-0.75,0.53-0.75c0.43,0,0.52,0.33,0.52,0.63v5.09h1.92v-5.81C40.01,9.26,39.34,8.69,38.51,8.69z"/>
	<path class="st1" d="M42.29,8.91c-0.85,0-1.31,0.55-1.31,1.61v5.49h1.93v-7.1H42.29z"/>
</g>
<g>
</g>
<g>
</g>
<g>
</g>
<g>
</g>
<g>
</g>
<g>
</g>
</svg>
