<?xml version="1.0" encoding="utf-8"?>
<!-- Generator: Adobe Illustrator 25.0.0, SVG Export Plug-In . SVG Version: 6.00 Build 0)  -->
<svg version="1.1" id="Ebene_1" xmlns="http://www.w3.org/2000/svg" xmlns:xlink="http://www.w3.org/1999/xlink" x="0px" y="0px"
	 viewBox="0 0 566.9 226.8" style="enable-background:new 0 0 566.9 226.8;" xml:space="preserve">
<style type="text/css">
	.st0{opacity:0.75;fill:#2C475E;}
	.st1{opacity:0.65;fill:#2C475E;}
	.st2{opacity:0.7;fill:#2C475E;}
	.st3{opacity:0.9;fill:#2C475E;}
	.st4{fill:#2C475E;}
	.st5{fill:#FFFFFF;}
	.st6{fill:#F6B131;}
	.st7{fill:#911D7E;}
	.st8{fill:#3FA435;}
	.st9{fill:#355A6D;}
</style>
<g>
	<g>
		<path class="st4" d="M246.4,135.5c-0.4,0.2-0.9,0.4-1.5,0.7c-0.6,0.3-1.3,0.5-2.1,0.8c-0.8,0.3-1.7,0.5-2.6,0.6
			c-0.9,0.2-1.9,0.3-2.9,0.3c-2.3,0-4.3-0.6-6-1.9c-1.7-1.3-2.5-3.3-2.5-5.9v-25.3h-5.1v-5h5.1V87.2h6.3v12.5h8.4v5h-8.4v23.3
			c0.1,1.4,0.6,2.4,1.4,3c0.8,0.6,1.8,0.9,2.9,0.9c1.2,0,2.4-0.2,3.4-0.6c1-0.4,1.7-0.7,2.1-1L246.4,135.5z"/>
		<path class="st4" d="M252,92.7v-7.9h6.3v7.9H252z M252,137.4V99.8h6.3v37.6H252z"/>
		<path class="st4" d="M283.9,138.1c-2.6,0-5-0.5-7.2-1.6c-2.2-1.1-4.1-2.5-5.7-4.2c-1.6-1.8-2.8-3.8-3.7-6.2
			c-0.9-2.4-1.3-4.8-1.3-7.4c0-2.6,0.4-5.1,1.3-7.5c0.8-2.4,2-4.5,3.5-6.2c1.5-1.8,3.3-3.2,5.4-4.2c2.1-1,4.4-1.5,6.9-1.5
			c3,0,5.7,0.8,8.1,2.4s4.3,3.5,5.7,5.8V84.8h6.3v44.8c0,1.5,0.7,2.3,2,2.3v5.5c-0.5,0.1-1,0.2-1.4,0.2c-0.4,0-0.8,0.1-1.1,0.1
			c-1.4,0-2.6-0.4-3.5-1.1c-0.9-0.7-1.3-1.6-1.4-2.7l-0.1-3.5c-1.5,2.4-3.5,4.4-5.9,5.7C289.3,137.4,286.7,138.1,283.9,138.1z
			 M285.4,132.6c1.2,0,2.3-0.2,3.6-0.6c1.2-0.4,2.4-1,3.5-1.8c1.1-0.8,2-1.7,2.8-2.7c0.8-1,1.3-2.1,1.5-3.3v-10.8
			c-0.4-1.2-1.1-2.3-1.9-3.4c-0.9-1.1-1.8-2-2.9-2.8s-2.2-1.4-3.5-1.9c-1.2-0.5-2.4-0.7-3.6-0.7c-1.9,0-3.6,0.4-5.1,1.2
			c-1.5,0.8-2.8,1.8-3.9,3.2c-1.1,1.3-1.9,2.8-2.5,4.5c-0.6,1.7-0.9,3.4-0.9,5.2c0,1.9,0.3,3.7,1,5.4c0.7,1.7,1.6,3.2,2.7,4.4
			c1.2,1.2,2.5,2.2,4.1,3C281.9,132.2,283.6,132.6,285.4,132.6z"/>
		<path class="st4" d="M330.3,138.1c-2.8,0-5.4-0.5-7.8-1.5c-2.4-1-4.4-2.4-6-4.2c-1.7-1.8-3-3.9-3.9-6.2c-0.9-2.4-1.4-4.9-1.4-7.5
			c0-2.6,0.5-5.1,1.4-7.5c0.9-2.4,2.3-4.4,4-6.2c1.7-1.8,3.7-3.2,6.1-4.2c2.4-1,4.9-1.5,7.8-1.5c2.8,0,5.4,0.5,7.7,1.6
			c2.3,1.1,4.3,2.5,5.9,4.2c1.6,1.8,2.9,3.8,3.8,6.1c0.9,2.3,1.3,4.7,1.3,7.2c0,0.5,0,1,0,1.4c0,0.4-0.1,0.8-0.1,1h-31.2
			c0.1,1.9,0.6,3.6,1.3,5.1s1.7,2.9,2.8,4s2.5,2,3.9,2.6c1.5,0.6,3,0.9,4.6,0.9c1.2,0,2.3-0.2,3.4-0.5c1.1-0.3,2.1-0.7,3.1-1.3
			c1-0.5,1.8-1.2,2.6-1.9c0.7-0.8,1.3-1.6,1.7-2.6l5.5,1.5c-0.6,1.4-1.5,2.7-2.6,3.8c-1.1,1.2-2.3,2.1-3.7,3c-1.4,0.8-3,1.5-4.7,2
			S332.1,138.1,330.3,138.1z M343.1,116c-0.1-1.8-0.6-3.4-1.3-4.9c-0.7-1.5-1.7-2.8-2.8-3.9c-1.1-1.1-2.4-1.9-3.9-2.5
			c-1.5-0.6-3.1-0.9-4.8-0.9c-1.7,0-3.3,0.3-4.8,0.9c-1.5,0.6-2.8,1.4-3.9,2.5c-1.1,1.1-2,2.4-2.7,3.9c-0.7,1.5-1.1,3.1-1.3,4.9
			H343.1z"/>
		<path class="st4" d="M401.9,99.8h6.1l-16,37.6h-5.3l-7.6-18.4l-7.5,18.4h-5.3l-16-37.6h6l13,31.3l6.3-15.6l-6.5-15.6h5.3l4.6,12
			l4.6-12h5.3l-6.4,15.6l6.3,15.6L401.9,99.8z"/>
		<path class="st4" d="M423.5,138.1c-1.9,0-3.6-0.3-5.2-0.9s-3-1.4-4.1-2.4c-1.2-1-2.1-2.3-2.7-3.7c-0.6-1.4-1-2.9-1-4.5
			c0-1.8,0.4-3.4,1.2-4.9c0.8-1.5,1.9-2.7,3.3-3.7c1.4-1,3.1-1.8,5-2.4c1.9-0.6,4.1-0.8,6.4-0.8c1.8,0,3.7,0.2,5.5,0.5
			s3.5,0.8,5,1.4v-3c0-3.1-0.9-5.5-2.6-7.2c-1.7-1.8-4.2-2.6-7.3-2.6c-3.8,0-7.8,1.5-12,4.4l-2.1-4.1c2.4-1.6,4.9-2.9,7.3-3.7
			c2.4-0.8,4.9-1.2,7.5-1.2c4.8,0,8.6,1.3,11.4,4c2.8,2.6,4.2,6.4,4.2,11.2v15.3c0,1.5,0.7,2.3,2,2.3v5.5c-0.5,0.1-0.9,0.2-1.4,0.2
			s-0.8,0.1-1.2,0.1c-1.1,0-2.1-0.3-3.1-0.9s-1.6-1.6-1.7-3l-0.1-2.7c-0.9,1.2-1.8,2.2-3,3c-1.1,0.9-2.3,1.6-3.5,2.2
			c-1.2,0.6-2.5,1-3.9,1.3C426.1,137.9,424.8,138.1,423.5,138.1z M425.1,133.3c2,0,4-0.4,5.9-1.3c1.9-0.9,3.4-1.9,4.5-3.2
			c0.9-1.1,1.4-2,1.4-3v-5.5c-1.5-0.6-3.1-1-4.7-1.3c-1.7-0.3-3.3-0.5-4.8-0.5c-3.3,0-5.9,0.7-7.8,2c-2,1.3-3,3.1-3,5.4
			c0,1,0.2,1.9,0.6,2.8c0.4,0.9,0.9,1.7,1.7,2.3c0.7,0.7,1.6,1.2,2.7,1.6C422.5,133.1,423.7,133.3,425.1,133.3z"/>
		<path class="st4" d="M452.9,147.6c1.3,0.1,2.4,0.2,3.5,0.2c0.4,0,0.8-0.1,1.2-0.3c0.4-0.2,0.8-0.6,1.3-1.4c0.5-0.7,1-1.8,1.7-3.2
			c0.6-1.4,1.4-3.3,2.3-5.7l-15.9-37.6h6.6l12.8,31.9L478,99.8h6l-18.4,47.4c-0.9,2.3-2.1,3.9-3.7,4.9c-1.6,1-3.6,1.5-5.8,1.5
			c-0.5,0-1.1,0-1.6-0.1c-0.5,0-1.1-0.1-1.6-0.3V147.6z"/>
		<path class="st4" d="M502.5,138.1c-3,0-6-0.5-8.9-1.4c-2.9-0.9-5.4-2.3-7.6-4.1l2.7-4.2c2.2,1.7,4.4,2.9,6.6,3.8
			c2.2,0.8,4.5,1.3,7,1.3c2.7,0,4.9-0.5,6.5-1.6c1.6-1.1,2.4-2.6,2.4-4.6c0-0.9-0.2-1.7-0.6-2.3c-0.4-0.6-1.1-1.2-1.9-1.7
			c-0.9-0.5-2-0.9-3.3-1.3c-1.3-0.4-2.9-0.8-4.7-1.2c-2.3-0.6-4.2-1.1-5.8-1.7c-1.6-0.5-3-1.2-4-1.9c-1.1-0.7-1.8-1.6-2.3-2.6
			c-0.5-1-0.7-2.3-0.7-3.7c0-1.9,0.4-3.5,1.1-5c0.7-1.5,1.8-2.7,3.1-3.7c1.3-1,2.8-1.7,4.6-2.2c1.8-0.5,3.6-0.8,5.7-0.8
			c2.8,0,5.5,0.5,7.9,1.4c2.4,0.9,4.5,2.1,6.2,3.6l-2.9,3.8c-1.6-1.4-3.4-2.4-5.3-3.1c-2-0.7-4-1-6-1c-2.3,0-4.3,0.5-5.9,1.5
			c-1.6,1-2.4,2.6-2.4,4.7c0,0.9,0.2,1.6,0.5,2.2c0.3,0.6,0.8,1.1,1.5,1.5c0.7,0.4,1.6,0.8,2.8,1.2c1.1,0.3,2.5,0.7,4.1,1.1
			c2.5,0.6,4.7,1.2,6.5,1.8c1.8,0.6,3.4,1.3,4.6,2.1c1.2,0.8,2.1,1.8,2.7,2.9c0.6,1.1,0.9,2.4,0.9,4c0,3.5-1.3,6.3-4,8.4
			C510.7,137,507.1,138.1,502.5,138.1z"/>
	</g>
</g>
<g>
	<polygon class="st5" points="191.3,184.3 151.9,184.3 49.5,106.8 49.5,79.8 102.5,42.5 129.5,42.5 147,54.3 176.1,42.5 191.3,42.5 
		191.3,64.8 148.5,119.6 191.3,174.3 	"/>
	<path class="st6" d="M49.5,79.8c9.9,0.1,21.9-0.5,35.1-2.4c6.4-0.9,12.6-2.1,18.7-3.5c-0.8-10.5-1-21.1-0.8-31.4h-53V79.8z"/>
	<path class="st7" d="M129.8,66.1c16.4-6,31.9-13.8,46.3-23.6h-46.5C129.4,50.3,129.4,58.2,129.8,66.1z"/>
	<path class="st8" d="M152.9,146.9c9.7,13.5,22.4,22.6,38.3,27.4V64.8c-19.9,13.4-39.9,22.6-58.6,28.8
		C136,113.5,142.3,132.2,152.9,146.9z"/>
	<path class="st4" d="M131,162.6c-12.7-17.6-20.2-39.2-24.3-61.9c-6.8,1.5-13.3,2.6-19.3,3.5c-13.6,1.9-26,2.5-36.5,2.5
		c-0.5,0-0.9,0-1.4,0v77.5h102.4C144,178.3,137.1,171.1,131,162.6z"/>
</g>
</svg>
