<?xml version="1.0" encoding="utf-8"?>
<!-- Generator: Adobe Illustrator 24.3.0, SVG Export Plug-In . SVG Version: 6.00 Build 0)  -->
<svg version="1.1" id="Ebene_1" xmlns="http://www.w3.org/2000/svg" xmlns:xlink="http://www.w3.org/1999/xlink" x="0px" y="0px"
	 viewBox="0 0 380.21 111.12" style="enable-background:new 0 0 380.21 111.12;" xml:space="preserve">
<style type="text/css">
	.st0{fill:#004D7D;}
	.st1{fill:#FFDC00;}
</style>
<g>
	<path class="st0" d="M51.14,0L20.18,58.59H19.9L13.67,0H0l7.53,69.75h20.18L65,0C65,0,51.14,0,51.14,0z M69.19,0L54.4,69.75h48.08
		l2.42-11.44H70.21l3.91-18.51h32.64l2.42-10.97H76.54l3.63-17.39h34.41L117,0C117,0,69.19,0,69.19,0z M187.11,0l-29.57,51.8h-0.37
		l-8-51.8h-21.48L112.9,69.75h13.39l11.35-58.5h0.28l9.67,58.5h12L194,10.97h0.46l-13.58,58.78h13.39L209.06,0H187.11z
		 M245.98,10.23h0.19l4.28,36.18h-24.09L245.98,10.23z M238.07,0l-37.94,69.75h13.86l7.16-13.21h30.13l1.77,13.21h13.58L257.79,0
		C257.79,0,238.07,0,238.07,0z"/>
	<path class="st1" d="M121.17,96.11c84.47,16.84,181.11,12.52,215.12-67.58h-39.24L380.21,0C364.18,50.56,312.3,148.6,121.17,96.11"
		/>
</g>
</svg>
